<svg width="128" height="86" viewBox="0 0 128 86" fill="none" xmlns="http://www.w3.org/2000/svg">
<mask id="mask0_28_53" style="mask-type:luminance" maskUnits="userSpaceOnUse" x="0" y="29" width="65" height="57">
<path d="M0 29.6198H64.7708V86H0V29.6198Z" fill="white"/>
</mask>
<g mask="url(#mask0_28_53)">
<path d="M43.1719 69.6875V77.4948L7.82817 61.0729V54.7448L43.1719 38.3229V46.1302L16.4428 57.8333V57.9844L43.1719 69.6875ZM64.1563 29.6562H5.05733C2.27087 29.6562 0.00524902 31.9167 0.00524902 34.7083V81.1146C0.00524902 83.901 2.27087 86.1667 5.05733 86.1667H47.75L64.1563 29.6562Z" fill="#37B7F0"/>
</g>
<mask id="mask1_28_53" style="mask-type:luminance" maskUnits="userSpaceOnUse" x="63" y="0" width="65" height="58">
<path d="M63.4375 0H128V57.6198H63.4375V0Z" fill="white"/>
</mask>
<g mask="url(#mask1_28_53)">
<path d="M120.391 31.6614L85.0521 47.8594V40.0521L112.365 28.3489V28.2031L85.0521 16.4948V8.69269L120.391 24.8854V31.6614ZM80.5625 0.020813L64.1562 56.5312H123.161C125.953 56.5312 128.214 54.2656 128.214 51.4791V5.0729C128.214 2.28123 125.953 0.020813 123.161 0.020813H80.5625Z" fill="#248FEF"/>
</g>
</svg>
