<svg width="237" height="122" viewBox="0 0 237 122" fill="none" xmlns="http://www.w3.org/2000/svg">
<mask id="mask0_36_6" style="mask-type:luminance" maskUnits="userSpaceOnUse" x="52" y="29" width="65" height="57">
<path d="M52 29.6198H116.771V86H52V29.6198Z" fill="white"/>
</mask>
<g mask="url(#mask0_36_6)">
<path d="M95.1719 69.6875V77.4948L59.8282 61.0729V54.7448L95.1719 38.3229V46.1302L68.4428 57.8333V57.9844L95.1719 69.6875ZM116.156 29.6562H57.0573C54.2709 29.6562 52.0052 31.9167 52.0052 34.7083V81.1146C52.0052 83.901 54.2709 86.1667 57.0573 86.1667H99.75L116.156 29.6562Z" fill="#37B7F0"/>
</g>
<mask id="mask1_36_6" style="mask-type:luminance" maskUnits="userSpaceOnUse" x="115" y="0" width="65" height="58">
<path d="M115.438 0H180V57.6198H115.438V0Z" fill="white"/>
</mask>
<g mask="url(#mask1_36_6)">
<path d="M172.391 31.6614L137.052 47.8594V40.0521L164.365 28.3489V28.2031L137.052 16.4948V8.69269L172.391 24.8854V31.6614ZM132.563 0.020813L116.156 56.5312H175.161C177.953 56.5312 180.214 54.2656 180.214 51.4791V5.0729C180.214 2.28123 177.953 0.020813 175.161 0.020813H132.563Z" fill="#248FEF"/>
</g>
<path d="M9.72917 120.708C8.3125 120.708 6.73958 120.656 5.02083 120.562C3.29687 120.464 1.69271 120.323 0.208333 120.146L0 114.729C2.40104 115.062 4.72917 115.328 6.97917 115.521C9.89583 115.786 12.1875 115.938 13.8542 115.979V104.938H2.66667V100H19.9583V112.021C19.9583 114.245 19.6146 115.99 18.9375 117.25C18.2708 118.5 17.1979 119.391 15.7292 119.917C14.2708 120.443 12.2708 120.708 9.72917 120.708Z" fill="#37B7F0"/>
<path d="M42.0417 121.188C38.4688 121.188 35.6771 120.854 33.6667 120.188C31.651 119.521 30.1979 118.432 29.3125 116.917C28.4375 115.406 28 113.292 28 110.583C28 107.875 28.4375 105.766 29.3125 104.25C30.1875 102.724 31.6302 101.635 33.6458 100.979C35.6563 100.328 38.4583 100 42.0417 100C45.625 100 48.4219 100.328 50.4375 100.979C52.4479 101.635 53.8958 102.724 54.7708 104.25C55.6458 105.766 56.0833 107.875 56.0833 110.583C56.0833 113.292 55.6458 115.406 54.7708 116.917C53.8958 118.432 52.4479 119.521 50.4375 120.188C48.4219 120.854 45.625 121.188 42.0417 121.188ZM42.0417 115.833C44.5 115.833 46.9583 115.771 49.4167 115.646V105.5C46.6771 105.406 44.2188 105.354 42.0417 105.354C39.8594 105.354 37.4063 105.406 34.6875 105.5V115.646C37.1302 115.771 39.5833 115.833 42.0417 115.833Z" fill="#37B7F0"/>
<path d="M83.1741 107.581V100.227H89.2783V120.456H83.1741V112.748H70.3616V120.456H64.2574V100.227H70.3616V107.581H83.1741Z" fill="#37B7F0"/>
<path d="M102.854 120.229H97V100H107.083L116.333 116.104H116.479V100H122.354V120.229H112.271L103.021 104.125H102.854V120.229Z" fill="#37B7F0"/>
<path d="M144 120.229V100H158.646C161.521 100 163.792 100.328 165.458 100.979C167.125 101.62 168.333 102.667 169.083 104.125C169.833 105.583 170.208 107.578 170.208 110.104C170.208 112.646 169.833 114.646 169.083 116.104C168.333 117.562 167.125 118.62 165.458 119.271C163.792 119.911 161.521 120.229 158.646 120.229H144ZM150.104 105.146V115.062H163.542V105.146H150.104Z" fill="#37B7F0"/>
<path d="M201.438 120.229H178V100H201V104.938H184.104V108.042H196.417V112.188H184.104V115.292H201.438V120.229Z" fill="#37B7F0"/>
<path d="M227.104 120.229H217.917L209 100.146V100H215.625L222.562 116.104H222.708L229.792 100H236.208V100.146L227.104 120.229Z" fill="#37B7F0"/>
<rect x="130" y="108" width="6" height="6" fill="#37B7F0"/>
</svg>
