<svg width="159" height="99" viewBox="0 0 159 99" fill="none" xmlns="http://www.w3.org/2000/svg">
<path d="M27.2658 84.4572C26.2598 84.4572 25.1428 84.4202 23.9223 84.3537C22.6981 84.2834 21.559 84.1835 20.5049 84.0578L20.357 80.2114C22.062 80.4481 23.7152 80.6367 25.313 80.7735C27.3841 80.9622 29.0115 81.0694 30.195 81.099V73.2582H22.2506V69.752H34.5296V78.2881C34.5296 79.8674 34.2855 81.1064 33.8047 82.0014C33.3313 82.8891 32.5694 83.5215 31.5265 83.8951C30.4909 84.2686 29.0706 84.4572 27.2658 84.4572Z" fill="#37B7F0"/>
<path d="M57.0916 84.4573C54.9798 84.4573 53.3265 84.2206 52.1356 83.7472C50.9521 83.2664 50.0977 82.4823 49.5763 81.3949C49.0511 80.3113 48.7922 78.8208 48.7922 76.9271C48.7922 75.0335 49.0511 73.5504 49.5763 72.4742C50.0977 71.3905 50.9521 70.6101 52.1356 70.1367C53.3265 69.6559 54.9798 69.4118 57.0916 69.4118C60.08 69.4118 62.9426 69.5265 65.6869 69.7521L65.8348 73.5985C63.4271 73.3322 60.7753 73.1029 57.8757 72.9032C56.633 72.8144 55.1869 72.7515 53.541 72.7109V81.1434C54.9798 81.0954 56.4259 81.0362 57.8757 80.9659C60.3019 80.8586 62.987 80.6256 65.9384 80.2706L65.7905 84.117C63.1054 84.3426 60.2057 84.4573 57.0916 84.4573Z" fill="#37B7F0"/>
<path d="M80.4604 84.4573C77.9232 84.4573 75.9408 84.2206 74.5132 83.7472C73.0819 83.2738 72.05 82.5008 71.4213 81.4245C70.7999 80.352 70.4893 78.8504 70.4893 76.9271C70.4893 75.0039 70.7999 73.506 71.4213 72.4298C72.0426 71.3461 73.0671 70.5731 74.4984 70.1071C75.926 69.6448 77.9158 69.4118 80.4604 69.4118C83.005 69.4118 84.9911 69.6448 86.4224 70.1071C87.85 70.5731 88.8782 71.3461 89.4995 72.4298C90.1209 73.506 90.4315 75.0039 90.4315 76.9271C90.4315 78.8504 90.1209 80.352 89.4995 81.4245C88.8782 82.5008 87.85 83.2738 86.4224 83.7472C84.9911 84.2206 83.005 84.4573 80.4604 84.4573ZM80.4604 80.6552C82.2061 80.6552 83.9518 80.6108 85.6975 80.5221V73.3174C83.7521 73.2508 82.0064 73.2139 80.4604 73.2139C78.9107 73.2139 77.1687 73.2508 75.2381 73.3174V80.5221C76.9727 80.6108 78.7147 80.6552 80.4604 80.6552Z" fill="#37B7F0"/>
<path d="M96.3464 84.117V69.752H106.747C108.788 69.752 110.401 69.985 111.584 70.4473C112.768 70.9022 113.626 71.6456 114.158 72.6812C114.691 73.7168 114.957 75.1333 114.957 76.9271C114.957 78.732 114.691 80.1522 114.158 81.1878C113.626 82.2233 112.768 82.9741 111.584 83.4364C110.401 83.8914 108.788 84.117 106.747 84.117H96.3464ZM100.681 73.4061V80.4481H110.223V73.4061H100.681Z" fill="#37B7F0"/>
<path d="M137.518 84.117H120.874V69.752H137.207V73.2582H125.209V75.4625H133.952V78.4065H125.209V80.6108H137.518V84.117Z" fill="#37B7F0"/>
<path d="M2.48724 98.1734C2.18026 98.1734 1.88438 98.1475 1.5996 98.0994C1.31112 98.0514 1.04482 97.9774 0.800724 97.8775C0.56402 97.7703 0.345809 97.6371 0.149789 97.4781C0.0906128 97.4411 0.0462308 97.3893 0.0166429 97.3302C-0.00554762 97.271 -0.00554762 97.2192 0.0166429 97.1674C0.0351351 97.1083 0.0647231 97.0602 0.105407 97.0195C0.142392 96.9825 0.186773 96.9603 0.238553 96.9603C0.297728 96.9603 0.360603 96.9825 0.430874 97.0195C0.715658 97.2377 1.02263 97.3967 1.3481 97.4929C1.67357 97.5928 2.05081 97.6408 2.48724 97.6408C3.079 97.6408 3.52282 97.5299 3.8187 97.3006C4.12197 97.0639 4.27731 96.7606 4.27731 96.3833C4.27731 96.069 4.16635 95.8212 3.95184 95.6436C3.73363 95.4661 3.37857 95.3256 2.88668 95.2146L1.92507 95.0223C1.32221 94.9039 0.874694 94.7042 0.578814 94.4157C0.290332 94.131 0.149789 93.75 0.149789 93.2766C0.149789 92.9918 0.201568 92.7292 0.312522 92.4925C0.430874 92.2558 0.593608 92.0561 0.800724 91.886C1.01524 91.7084 1.26673 91.5753 1.55522 91.4865C1.84 91.3978 2.15437 91.3534 2.50203 91.3534C2.91626 91.3534 3.28981 91.4126 3.62637 91.5309C3.97033 91.6419 4.28471 91.8194 4.57319 92.0635C4.63236 92.1042 4.66935 92.1523 4.69154 92.2114C4.71003 92.2706 4.71003 92.3298 4.69154 92.389C4.66935 92.4408 4.63976 92.4851 4.60278 92.5221C4.56209 92.5517 4.51401 92.5665 4.45484 92.5665C4.40306 92.5665 4.34388 92.5443 4.27731 92.4925C4.01102 92.278 3.73363 92.1227 3.44885 92.0339C3.16036 91.9378 2.84599 91.886 2.50203 91.886C2.14698 91.886 1.8363 91.9452 1.57001 92.0635C1.31112 92.1745 1.1114 92.3298 0.963458 92.5369C0.822915 92.744 0.756342 92.9918 0.756342 93.2766C0.756342 93.6021 0.852503 93.8647 1.05222 94.0607C1.25934 94.2604 1.5848 94.401 2.02862 94.4897L2.99023 94.682C3.63007 94.8115 4.10348 95.0075 4.41046 95.2738C4.72483 95.5401 4.88386 95.9025 4.88386 96.3538C4.88386 96.6201 4.82469 96.8679 4.70633 97.0935C4.59538 97.3228 4.44004 97.5188 4.23293 97.6852C4.02581 97.8443 3.77431 97.9663 3.47843 98.0551C3.18255 98.1327 2.84969 98.1734 2.48724 98.1734Z" fill="white"/>
<path d="M10.7619 98.1734C10.1479 98.1734 9.61535 98.0366 9.16413 97.7592C8.72031 97.4855 8.37266 97.0898 8.12855 96.5757C7.89185 96.0653 7.7735 95.4587 7.7735 94.756C7.7735 94.2234 7.83637 93.75 7.96582 93.3358C8.10266 92.9142 8.29868 92.5591 8.55758 92.2706C8.82387 91.9747 9.13824 91.7491 9.50439 91.5901C9.87794 91.4348 10.2959 91.3534 10.7619 91.3534C11.3721 91.3534 11.901 91.4939 12.3448 91.7676C12.7961 92.0339 13.1437 92.426 13.3804 92.9363C13.6245 93.4393 13.7503 94.0422 13.7503 94.7412C13.7503 95.2738 13.68 95.7546 13.5432 96.1762C13.4026 96.6016 13.2029 96.9603 12.9366 97.2562C12.6777 97.5521 12.3633 97.7814 11.9898 97.9367C11.6236 98.0958 11.2131 98.1734 10.7619 98.1734ZM10.7619 97.6408C11.2649 97.6408 11.6865 97.5299 12.0342 97.3006C12.3892 97.075 12.6592 96.7495 12.8478 96.3242C13.0328 95.8914 13.1289 95.37 13.1289 94.756C13.1289 93.8388 12.9218 93.1361 12.5076 92.6405C12.0933 92.1375 11.509 91.886 10.7619 91.886C10.2589 91.886 9.82986 92.0006 9.47481 92.2262C9.11975 92.4555 8.84606 92.7847 8.66114 93.2174C8.48361 93.6428 8.39485 94.1569 8.39485 94.756C8.39485 95.6658 8.60196 96.376 9.01619 96.8863C9.43042 97.3893 10.0111 97.6408 10.7619 97.6408Z" fill="white"/>
<path d="M17.4423 98.1587C17.3314 98.1587 17.25 98.1291 17.1909 98.0699C17.1391 98.0108 17.1169 97.9331 17.1169 97.8332V91.7529C17.1169 91.6456 17.1391 91.568 17.1909 91.5162C17.25 91.457 17.3314 91.4274 17.4423 91.4274H20.9337C21.0114 91.4274 21.0743 91.4533 21.1261 91.5014C21.1741 91.5421 21.2 91.5976 21.2 91.6641C21.2 91.7529 21.1741 91.8232 21.1261 91.8712C21.0743 91.9119 21.0114 91.9304 20.9337 91.9304H17.6938V94.475H20.7414C20.8191 94.475 20.882 94.4972 20.9337 94.5342C20.9818 94.5748 21.0077 94.6377 21.0077 94.7265C21.0077 94.8079 20.9818 94.8707 20.9337 94.9188C20.882 94.9595 20.8191 94.978 20.7414 94.978H17.6938V97.8332C17.6938 98.0514 17.6088 98.1587 17.4423 98.1587Z" fill="white"/>
<path d="M26.0782 98.1587C25.9784 98.1587 25.9044 98.1328 25.8563 98.0847C25.8045 98.0255 25.7824 97.9479 25.7824 97.848V91.9452H23.5189C23.4301 91.9452 23.3598 91.923 23.3118 91.8712C23.2637 91.8232 23.2378 91.7603 23.2378 91.6789C23.2378 91.6013 23.2637 91.5421 23.3118 91.5014C23.3598 91.4533 23.4301 91.4274 23.5189 91.4274H28.6524C28.7301 91.4274 28.7929 91.4533 28.8447 91.5014C28.8928 91.5421 28.9187 91.6013 28.9187 91.6789C28.9187 91.7603 28.8928 91.8232 28.8447 91.8712C28.7929 91.923 28.7301 91.9452 28.6524 91.9452H26.3741V97.848C26.3741 97.9479 26.3482 98.0255 26.3001 98.0847C26.2484 98.1328 26.1744 98.1587 26.0782 98.1587Z" fill="white"/>
<path d="M33.6973 98.1587C33.6085 98.1587 33.5346 98.1328 33.4754 98.0847C33.4236 98.0366 33.3792 97.9663 33.3423 97.8776L31.2119 91.7233C31.1823 91.616 31.186 91.531 31.2267 91.4718C31.2748 91.4052 31.3525 91.3682 31.4634 91.3682C31.5411 91.3682 31.604 91.3904 31.6557 91.4274C31.7149 91.4681 31.7593 91.531 31.7889 91.6197L33.86 97.6853H33.5642L35.6501 91.6493C35.6871 91.5605 35.7278 91.494 35.7685 91.4422C35.8165 91.3941 35.8868 91.3682 35.9756 91.3682C36.0643 91.3682 36.1272 91.3941 36.1679 91.4422C36.216 91.494 36.2567 91.5605 36.2863 91.6493L38.3722 97.6853H38.0911L40.1919 91.6197C40.2104 91.531 40.2436 91.4681 40.2954 91.4274C40.3546 91.3904 40.4212 91.3682 40.5025 91.3682C40.6098 91.3682 40.6838 91.4052 40.7244 91.4718C40.7725 91.531 40.7762 91.616 40.7392 91.7233L38.5941 97.8776C38.5534 97.9663 38.509 98.0366 38.461 98.0847C38.4092 98.1328 38.3352 98.1587 38.2391 98.1587C38.1503 98.1587 38.0763 98.1328 38.0171 98.0847C37.9654 98.0366 37.9284 97.9663 37.8988 97.8776L35.872 92.034H36.0643L34.0376 97.8776C33.9969 97.9663 33.9525 98.0366 33.9044 98.0847C33.8637 98.1328 33.7935 98.1587 33.6973 98.1587Z" fill="white"/>
<path d="M43.6857 98.1587C43.6043 98.1587 43.5414 98.1365 43.4934 98.0995C43.4416 98.0699 43.412 98.0255 43.4046 97.9663C43.4046 97.8998 43.4231 97.8258 43.4638 97.7444L46.1119 91.6345C46.16 91.5384 46.2155 91.4681 46.2746 91.4274C46.3412 91.3904 46.4078 91.3682 46.467 91.3682C46.5446 91.3682 46.6149 91.3904 46.6741 91.4274C46.7332 91.4681 46.7813 91.5384 46.822 91.6345L49.4849 97.7444C49.5145 97.8258 49.5293 97.8998 49.5293 97.9663C49.5293 98.0255 49.5034 98.0699 49.4553 98.0995C49.4147 98.1365 49.3555 98.1587 49.2778 98.1587C49.189 98.1587 49.1151 98.1328 49.0559 98.0847C49.0041 98.0366 48.9597 97.9737 48.9228 97.8924L48.1979 96.1763L48.5085 96.3242H44.4106L44.7361 96.1763L44.0112 97.8924C43.9705 97.9922 43.9224 98.0625 43.8632 98.0995C43.8114 98.1365 43.7523 98.1587 43.6857 98.1587ZM46.4522 92.1375L44.8544 95.9248L44.6325 95.8212H48.3014L48.0943 95.9248L46.4818 92.1375H46.4522Z" fill="white"/>
<path d="M52.9304 98.1587C52.8416 98.1587 52.7713 98.1328 52.7233 98.0847C52.6715 98.0255 52.6493 97.9479 52.6493 97.848V91.7233C52.6493 91.6271 52.6715 91.5532 52.7233 91.5014C52.7824 91.4533 52.8564 91.4274 52.9452 91.4274H55.1643C55.8744 91.4274 56.4144 91.5902 56.7916 91.9156C57.1763 92.2411 57.3686 92.7108 57.3686 93.3211C57.3686 93.7057 57.2798 94.0423 57.1023 94.327C56.9321 94.6044 56.6807 94.8153 56.3478 94.9632C56.0223 95.1111 55.6266 95.1851 55.1643 95.1851L55.2678 95.0667H55.401C55.6377 95.0667 55.8448 95.1333 56.0223 95.2591C56.2072 95.3774 56.3774 95.5808 56.5253 95.8656L57.5165 97.7297C57.5646 97.7999 57.5831 97.8702 57.5757 97.9368C57.5757 98.0071 57.5498 98.0625 57.5017 98.0995C57.461 98.1365 57.4056 98.1587 57.339 98.1587C57.2576 98.1587 57.191 98.1365 57.1319 98.0995C57.0801 98.0625 57.0357 98.0071 56.9987 97.9368L55.9483 95.9544C55.7782 95.6585 55.5933 95.4625 55.3862 95.3626C55.1865 95.2665 54.9165 95.2147 54.5725 95.2147H53.2263V97.848C53.2263 97.9479 53.2004 98.0255 53.1523 98.0847C53.1005 98.1328 53.0265 98.1587 52.9304 98.1587ZM53.2263 94.7265H55.0903C55.6525 94.7265 56.0704 94.6081 56.3478 94.3714C56.6326 94.1347 56.7768 93.7871 56.7768 93.3211C56.7768 92.8698 56.6326 92.5222 56.3478 92.2855C56.0704 92.0488 55.6525 91.9304 55.0903 91.9304H53.2263V94.7265Z" fill="white"/>
<path d="M61.1244 98.0995C61.0134 98.0995 60.932 98.0699 60.8729 98.0108C60.8211 97.9516 60.7989 97.8739 60.7989 97.774V91.7529C60.7989 91.6456 60.8211 91.568 60.8729 91.5162C60.932 91.457 61.0134 91.4274 61.1244 91.4274H64.7045C64.7933 91.4274 64.8561 91.4533 64.8968 91.5014C64.9338 91.5421 64.956 91.5976 64.956 91.6641C64.956 91.7529 64.9338 91.8232 64.8968 91.8712C64.8561 91.9119 64.7933 91.9304 64.7045 91.9304H61.3611V94.4602H64.5122C64.6009 94.4602 64.6638 94.4861 64.7045 94.5342C64.7526 94.5748 64.7785 94.634 64.7785 94.7117C64.7785 94.7931 64.7526 94.8559 64.7045 94.904C64.6638 94.9447 64.6009 94.9632 64.5122 94.9632H61.3611V97.5965H64.7045C64.7933 97.5965 64.8561 97.6187 64.8968 97.6557C64.9338 97.6964 64.956 97.7593 64.956 97.848C64.956 97.9294 64.9338 97.9923 64.8968 98.0403C64.8561 98.081 64.7933 98.0995 64.7045 98.0995H61.1244Z" fill="white"/>
<path d="M72.7481 98.0995C72.6372 98.0995 72.5558 98.0699 72.4966 98.0108C72.4449 97.9516 72.4227 97.8739 72.4227 97.774V91.7529C72.4227 91.6456 72.4449 91.568 72.4966 91.5162C72.5558 91.457 72.6372 91.4274 72.7481 91.4274H74.5678C75.633 91.4274 76.4503 91.7159 77.0236 92.2855C77.6043 92.8477 77.8964 93.6724 77.8964 94.7561C77.8964 95.2998 77.8225 95.7843 77.6745 96.2059C77.5266 96.6201 77.3084 96.9715 77.0236 97.2563C76.7351 97.5336 76.3875 97.7445 75.9732 97.8924C75.5664 98.0329 75.1004 98.0995 74.5678 98.0995H72.7481ZM72.9996 97.5817H74.5234C74.9857 97.5817 75.3852 97.5225 75.7217 97.4042C76.0657 97.2858 76.3505 97.1157 76.5798 96.8864C76.8165 96.6497 76.9866 96.3538 77.0976 95.9988C77.2159 95.6363 77.2751 95.2221 77.2751 94.7561C77.2751 93.8204 77.0421 93.1139 76.5798 92.6405C76.1249 92.1671 75.4406 91.9304 74.5234 91.9304H72.9996V97.5817Z" fill="white"/>
<path d="M81.5792 98.0995C81.4682 98.0995 81.3869 98.0699 81.3277 98.0108C81.2759 97.9516 81.2537 97.8739 81.2537 97.774V91.7529C81.2537 91.6456 81.2759 91.568 81.3277 91.5162C81.3869 91.457 81.4682 91.4274 81.5792 91.4274H85.1593C85.2481 91.4274 85.311 91.4533 85.3517 91.5014C85.3886 91.5421 85.4108 91.5976 85.4108 91.6641C85.4108 91.7529 85.3886 91.8232 85.3517 91.8712C85.311 91.9119 85.2481 91.9304 85.1593 91.9304H81.8159V94.4602H84.967C85.0558 94.4602 85.1187 94.4861 85.1593 94.5342C85.2074 94.5748 85.2333 94.634 85.2333 94.7117C85.2333 94.7931 85.2074 94.8559 85.1593 94.904C85.1187 94.9447 85.0558 94.9632 84.967 94.9632H81.8159V97.5965H85.1593C85.2481 97.5965 85.311 97.6187 85.3517 97.6557C85.3886 97.6964 85.4108 97.7593 85.4108 97.848C85.4108 97.9294 85.3886 97.9923 85.3517 98.0403C85.311 98.081 85.2481 98.0995 85.1593 98.0995H81.5792Z" fill="white"/>
<path d="M90.9363 98.1587C90.8475 98.1587 90.7735 98.1328 90.7144 98.0847C90.6552 98.0366 90.5997 97.9663 90.5516 97.8776L87.9035 91.7381C87.8739 91.6604 87.8628 91.5975 87.8739 91.5458C87.8924 91.4866 87.9257 91.4422 87.9775 91.4126C88.0255 91.383 88.081 91.3682 88.1402 91.3682C88.229 91.3682 88.2918 91.3904 88.3325 91.4274C88.3806 91.4681 88.425 91.5236 88.4657 91.5901L91.0842 97.6705H90.8179L93.4217 91.5901C93.4512 91.5236 93.4882 91.4681 93.54 91.4274C93.5992 91.3904 93.6658 91.3682 93.7471 91.3682C93.8137 91.3682 93.8692 91.383 93.9099 91.4126C93.9579 91.4422 93.9875 91.4866 93.9986 91.5458C94.006 91.5975 93.9986 91.6604 93.969 91.7381L91.3061 97.8776C91.2765 97.9663 91.2321 98.0366 91.173 98.0847C91.1138 98.1328 91.0324 98.1587 90.9363 98.1587Z" fill="white"/>
<path d="M97.2348 98.0995C97.1238 98.0995 97.0424 98.0699 96.9833 98.0108C96.9315 97.9516 96.9093 97.8739 96.9093 97.774V91.7529C96.9093 91.6456 96.9315 91.568 96.9833 91.5162C97.0424 91.457 97.1238 91.4274 97.2348 91.4274H100.815C100.904 91.4274 100.967 91.4533 101.007 91.5014C101.044 91.5421 101.066 91.5976 101.066 91.6641C101.066 91.7529 101.044 91.8232 101.007 91.8712C100.967 91.9119 100.904 91.9304 100.815 91.9304H97.4715V94.4602H100.623C100.711 94.4602 100.774 94.4861 100.815 94.5342C100.863 94.5748 100.889 94.634 100.889 94.7117C100.889 94.7931 100.863 94.8559 100.815 94.904C100.774 94.9447 100.711 94.9632 100.623 94.9632H97.4715V97.5965H100.815C100.904 97.5965 100.967 97.6187 101.007 97.6557C101.044 97.6964 101.066 97.7593 101.066 97.848C101.066 97.9294 101.044 97.9923 101.007 98.0403C100.967 98.081 100.904 98.0995 100.815 98.0995H97.2348Z" fill="white"/>
<path d="M104.55 98.0995C104.462 98.0995 104.388 98.0773 104.328 98.0256C104.277 97.9664 104.254 97.8924 104.254 97.8036V91.6789C104.254 91.5828 104.277 91.5088 104.328 91.457C104.377 91.4089 104.447 91.3831 104.536 91.3831C104.632 91.3831 104.706 91.4089 104.757 91.457C104.806 91.5088 104.831 91.5828 104.831 91.6789V97.5817H108.086C108.182 97.5817 108.253 97.6076 108.293 97.6557C108.341 97.6964 108.367 97.7556 108.367 97.8332C108.367 97.922 108.341 97.9923 108.293 98.0403C108.253 98.081 108.182 98.0995 108.086 98.0995H104.55Z" fill="white"/>
<path d="M113.934 98.1734C113.32 98.1734 112.787 98.0366 112.336 97.7592C111.892 97.4855 111.544 97.0898 111.3 96.5757C111.064 96.0653 110.945 95.4587 110.945 94.756C110.945 94.2234 111.008 93.75 111.138 93.3358C111.274 92.9142 111.47 92.5591 111.729 92.2706C111.996 91.9747 112.31 91.7491 112.676 91.5901C113.05 91.4348 113.468 91.3534 113.934 91.3534C114.544 91.3534 115.073 91.4939 115.517 91.7676C115.968 92.0339 116.316 92.426 116.552 92.9363C116.796 93.4393 116.922 94.0422 116.922 94.7412C116.922 95.2738 116.852 95.7546 116.715 96.1762C116.574 96.6016 116.375 96.9603 116.108 97.2562C115.85 97.5521 115.535 97.7814 115.162 97.9367C114.795 98.0958 114.385 98.1734 113.934 98.1734ZM113.934 97.6408C114.437 97.6408 114.858 97.5299 115.206 97.3006C115.561 97.075 115.831 96.7495 116.02 96.3242C116.205 95.8914 116.301 95.37 116.301 94.756C116.301 93.8388 116.094 93.1361 115.679 92.6405C115.265 92.1375 114.681 91.886 113.934 91.886C113.431 91.886 113.002 92.0006 112.647 92.2262C112.292 92.4555 112.018 92.7847 111.833 93.2174C111.655 93.6428 111.567 94.1569 111.567 94.756C111.567 95.6658 111.774 96.376 112.188 96.8863C112.602 97.3893 113.183 97.6408 113.934 97.6408Z" fill="white"/>
<path d="M120.57 98.1587C120.481 98.1587 120.411 98.1328 120.363 98.0847C120.311 98.0255 120.289 97.9479 120.289 97.848V91.7233C120.289 91.6271 120.311 91.5532 120.363 91.5014C120.422 91.4533 120.496 91.4274 120.585 91.4274H122.804C123.514 91.4274 124.054 91.6013 124.431 91.9452C124.816 92.2818 125.008 92.7663 125.008 93.395C125.008 94.0164 124.816 94.5009 124.431 94.8448C124.054 95.1925 123.514 95.3626 122.804 95.3626H120.866V97.848C120.866 97.9479 120.84 98.0255 120.792 98.0847C120.74 98.1328 120.666 98.1587 120.57 98.1587ZM120.866 94.8448H122.759C123.31 94.8448 123.725 94.7265 124.002 94.4898C124.276 94.2457 124.416 93.8795 124.416 93.395C124.416 92.9142 124.276 92.5481 124.002 92.3003C123.725 92.0562 123.31 91.9304 122.759 91.9304H120.866V94.8448Z" fill="white"/>
<path d="M128.369 98.1587C128.288 98.1587 128.225 98.1328 128.177 98.0847C128.125 98.0366 128.103 97.9663 128.103 97.8776V91.6493C128.103 91.5605 128.125 91.494 128.177 91.4422C128.225 91.3941 128.284 91.3682 128.354 91.3682C128.443 91.3682 128.506 91.383 128.547 91.4126C128.595 91.4422 128.639 91.494 128.68 91.5605L131.387 96.7089H131.121L133.799 91.5605C133.847 91.494 133.891 91.4422 133.932 91.4126C133.969 91.383 134.035 91.3682 134.124 91.3682C134.191 91.3682 134.25 91.3941 134.302 91.4422C134.35 91.494 134.376 91.5605 134.376 91.6493V97.8776C134.376 97.9663 134.35 98.0366 134.302 98.0847C134.261 98.1328 134.198 98.1587 134.109 98.1587C134.02 98.1587 133.95 98.1328 133.902 98.0847C133.85 98.0366 133.828 97.9663 133.828 97.8776V92.1227H134.065L131.52 96.9308C131.491 97.001 131.454 97.0491 131.417 97.0787C131.376 97.1083 131.321 97.1231 131.254 97.1231C131.184 97.1231 131.125 97.1083 131.076 97.0787C131.036 97.0417 131.003 96.9899 130.973 96.9308L128.414 92.1227H128.635V97.8776C128.635 97.9663 128.61 98.0366 128.562 98.0847C128.521 98.1328 128.458 98.1587 128.369 98.1587Z" fill="white"/>
<path d="M138.342 98.0995C138.231 98.0995 138.15 98.0699 138.091 98.0108C138.039 97.9516 138.017 97.8739 138.017 97.774V91.7529C138.017 91.6456 138.039 91.568 138.091 91.5162C138.15 91.457 138.231 91.4274 138.342 91.4274H141.923C142.011 91.4274 142.074 91.4533 142.115 91.5014C142.152 91.5421 142.174 91.5976 142.174 91.6641C142.174 91.7529 142.152 91.8232 142.115 91.8712C142.074 91.9119 142.011 91.9304 141.923 91.9304H138.579V94.4602H141.73C141.819 94.4602 141.882 94.4861 141.923 94.5342C141.971 94.5748 141.997 94.634 141.997 94.7117C141.997 94.7931 141.971 94.8559 141.923 94.904C141.882 94.9447 141.819 94.9632 141.73 94.9632H138.579V97.5965H141.923C142.011 97.5965 142.074 97.6187 142.115 97.6557C142.152 97.6964 142.174 97.7593 142.174 97.848C142.174 97.9294 142.152 97.9923 142.115 98.0403C142.074 98.081 142.011 98.0995 141.923 98.0995H138.342Z" fill="white"/>
<path d="M145.628 98.1587C145.54 98.1587 145.469 98.1328 145.421 98.0847C145.381 98.0366 145.362 97.9626 145.362 97.8628V91.6641C145.362 91.5679 145.381 91.494 145.421 91.4422C145.469 91.3941 145.532 91.3682 145.614 91.3682C145.691 91.3682 145.75 91.383 145.791 91.4126C145.828 91.4348 145.869 91.4792 145.909 91.5458L150.259 97.4042H150.052V91.6493C150.052 91.5605 150.07 91.494 150.111 91.4422C150.159 91.3941 150.229 91.3682 150.318 91.3682C150.407 91.3682 150.47 91.3941 150.51 91.4422C150.558 91.494 150.584 91.5605 150.584 91.6493V97.8628C150.584 97.9626 150.562 98.0366 150.525 98.0847C150.484 98.1328 150.425 98.1587 150.348 98.1587C150.277 98.1587 150.218 98.1439 150.17 98.1143C150.129 98.0847 150.085 98.0403 150.037 97.9811L145.688 92.1227H145.895V97.8628C145.895 97.9626 145.869 98.0366 145.821 98.0847C145.78 98.1328 145.717 98.1587 145.628 98.1587Z" fill="white"/>
<path d="M156.16 98.1587C156.06 98.1587 155.986 98.1328 155.938 98.0847C155.886 98.0255 155.864 97.9479 155.864 97.848V91.9452H153.6C153.511 91.9452 153.441 91.923 153.393 91.8712C153.345 91.8232 153.319 91.7603 153.319 91.6789C153.319 91.6013 153.345 91.5421 153.393 91.5014C153.441 91.4533 153.511 91.4274 153.6 91.4274H158.734C158.811 91.4274 158.874 91.4533 158.926 91.5014C158.974 91.5421 159 91.6013 159 91.6789C159 91.7603 158.974 91.8232 158.926 91.8712C158.874 91.923 158.811 91.9452 158.734 91.9452H156.455V97.848C156.455 97.9479 156.43 98.0255 156.381 98.0847C156.33 98.1328 156.256 98.1587 156.16 98.1587Z" fill="white"/>
<mask id="mask0_1_810" style="mask-type:luminance" maskUnits="userSpaceOnUse" x="33" y="21" width="47" height="41">
<path d="M33.7355 21.0333H79.73V61.0695H33.7355V21.0333Z" fill="white"/>
</mask>
<g mask="url(#mask0_1_810)">
<path d="M64.3923 49.4858V55.0299L39.2943 43.3685V38.8749L64.3923 27.2135V32.7575L45.4116 41.0681V41.1753L64.3923 49.4858ZM79.2936 21.0592H37.3267C35.348 21.0592 33.7392 22.6644 33.7392 24.6467V57.6003C33.7392 59.579 35.348 61.1879 37.3267 61.1879H67.6433L79.2936 21.0592Z" fill="#37B7F0"/>
</g>
<mask id="mask1_1_810" style="mask-type:luminance" maskUnits="userSpaceOnUse" x="78" y="0" width="47" height="41">
<path d="M78.7831 0H124.63V40.9165H78.7831V0Z" fill="white"/>
</mask>
<g mask="url(#mask1_1_810)">
<path d="M119.226 22.4831L94.1319 33.9854V28.4414L113.527 20.1309V20.0273L94.1319 11.7131V6.17277L119.226 17.6714V22.4831ZM90.9438 0.0147705L79.2935 40.1434H121.194C123.176 40.1434 124.781 38.5346 124.781 36.5559V3.60231C124.781 1.61992 123.176 0.0147705 121.194 0.0147705H90.9438Z" fill="#248FEF"/>
</g>
</svg>
