<svg width="224" height="119" viewBox="0 0 224 119" fill="none" xmlns="http://www.w3.org/2000/svg">
<path d="M9.72917 118.935C8.3125 118.935 6.73958 118.883 5.02083 118.789C3.29687 118.69 1.69271 118.55 0.208333 118.373L0 112.956C2.40104 113.289 4.72917 113.555 6.97917 113.748C9.89583 114.013 12.1875 114.164 13.8542 114.206V103.164H2.66667V98.2269H19.9583V110.248C19.9583 112.472 19.6146 114.217 18.9375 115.477C18.2708 116.727 17.1979 117.618 15.7292 118.144C14.2708 118.67 12.2708 118.935 9.72917 118.935Z" fill="#37B7F0"/>
<path d="M41.8864 118.935C38.3135 118.935 35.5218 118.602 33.5114 117.935C31.4958 117.269 30.0426 116.18 29.1572 114.664C28.2822 113.154 27.8447 111.039 27.8447 108.331C27.8447 105.623 28.2822 103.513 29.1572 101.998C30.0322 100.472 31.4749 99.3832 33.4906 98.727C35.501 98.0759 38.3031 97.7478 41.8864 97.7478C45.4697 97.7478 48.2666 98.0759 50.2822 98.727C52.2926 99.3832 53.7406 100.472 54.6156 101.998C55.4906 103.513 55.9281 105.623 55.9281 108.331C55.9281 111.039 55.4906 113.154 54.6156 114.664C53.7406 116.18 52.2926 117.269 50.2822 117.935C48.2666 118.602 45.4697 118.935 41.8864 118.935ZM41.8864 113.581C44.3447 113.581 46.8031 113.519 49.2614 113.394V103.248C46.5218 103.154 44.0635 103.102 41.8864 103.102C39.7041 103.102 37.251 103.154 34.5322 103.248V113.394C36.9749 113.519 39.4281 113.581 41.8864 113.581Z" fill="#37B7F0"/>
<path d="M83.1741 105.581V98.2269H89.2783V118.456H83.1741V110.748H70.3616V118.456H64.2574V98.2269H70.3616V105.581H83.1741Z" fill="#37B7F0"/>
<path d="M104.653 118.456H98.7985V98.2269H108.882L118.132 114.331H118.278V98.2269H124.153V118.456H114.069L104.819 102.352H104.653V118.456Z" fill="#37B7F0"/>
<path d="M133.667 118.456V98.2269H148.313C151.188 98.2269 153.458 98.5551 155.125 99.2061C156.792 99.8467 158 100.894 158.75 102.352C159.5 103.81 159.875 105.805 159.875 108.331C159.875 110.873 159.5 112.873 158.75 114.331C158 115.789 156.792 116.847 155.125 117.498C153.458 118.138 151.188 118.456 148.313 118.456H133.667ZM139.771 103.373V113.289H153.208V103.373H139.771Z" fill="#37B7F0"/>
<path d="M191.645 118.456H168.208V98.2269H191.208V103.164H174.312V106.269H186.624V110.414H174.312V113.519H191.645V118.456Z" fill="#37B7F0"/>
<path d="M214.434 118.456H205.247L196.33 98.3728V98.2269H202.955L209.893 114.331H210.039L217.122 98.2269H223.539V98.3728L214.434 118.456Z" fill="#37B7F0"/>
<mask id="mask0_28_54" style="mask-type:luminance" maskUnits="userSpaceOnUse" x="47" y="29" width="65" height="57">
<path d="M47.1838 29.6198H111.955V86H47.1838V29.6198Z" fill="white"/>
</mask>
<g mask="url(#mask0_28_54)">
<path d="M90.3558 69.6875V77.4948L55.012 61.0729V54.7448L90.3558 38.3229V46.1302L63.6266 57.8333V57.9844L90.3558 69.6875ZM111.34 29.6562H52.2412C49.4547 29.6562 47.1891 31.9167 47.1891 34.7083V81.1146C47.1891 83.901 49.4547 86.1667 52.2412 86.1667H94.9339L111.34 29.6562Z" fill="#37B7F0"/>
</g>
<mask id="mask1_28_54" style="mask-type:luminance" maskUnits="userSpaceOnUse" x="110" y="0" width="66" height="58">
<path d="M110.621 0H175.184V57.6198H110.621V0Z" fill="white"/>
</mask>
<g mask="url(#mask1_28_54)">
<path d="M167.574 31.6614L132.236 47.8594V40.0521L159.548 28.3489V28.2031L132.236 16.4948V8.69269L167.574 24.8854V31.6614ZM127.746 0.020813L111.34 56.5312H170.345C173.137 56.5312 175.397 54.2656 175.397 51.4791V5.0729C175.397 2.28123 173.137 0.020813 170.345 0.020813H127.746Z" fill="#248FEF"/>
</g>
</svg>
