<svg width="629" height="600" viewBox="0 0 629 600" fill="none" xmlns="http://www.w3.org/2000/svg">
<path d="M206.115 510.4L421.415 471.9L628.215 352.4L454.215 251.9L261.515 258.5L206.115 510.4Z" fill="url(#paint0_linear_1_352)"/>
<path d="M525.815 153.8C525.815 150.7 524.115 147.8 521.415 146.2C491.615 129.1 319.815 30.2 295.515 16.2C293.715 15.2 291.615 15.2 289.815 16.1C285.815 18.3 278.915 21.8 278.915 21.8L288.015 189.7L513.315 339.6C513.315 339.6 517.815 337 521.415 334.9C524.115 333.4 525.715 330.5 525.715 327.4C525.715 301.5 525.815 180.2 525.815 153.8Z" fill="#0B4B85"/>
<path d="M513.415 161.9C513.415 158.2 511.415 154.8 508.315 153C476.615 134.7 307.715 37.5 280.915 22.1C280.215 21.7 279.215 21.7 278.515 22.1C277.815 22.5 277.315 23.3 277.315 24.2C277.115 49 275.915 176.9 275.715 199C275.715 201 276.715 202.9 278.515 203.9C305.315 219.4 513.415 339.8 513.415 339.8C513.415 339.8 513.415 193.4 513.415 161.9Z" fill="url(#paint1_linear_1_352)"/>
<path d="M416.015 143.6L481.515 181.4V192L416.015 154.1V143.6Z" fill="#BFBFBF"/>
<path d="M416.015 168.9L481.515 206.8V217.3L416.015 179.4V168.9Z" fill="#BFBFBF"/>
<path d="M416.015 195.9L481.515 233.7V282.6L416.015 244.7V195.9Z" fill="#0B4B85"/>
<path fill-rule="evenodd" clip-rule="evenodd" d="M447.815 229.2C446.615 228.3 445.315 227.5 444.115 227.1L443.515 228.6C442.315 228.4 441.315 228.5 440.415 228.9L438.715 227.6C437.915 228.2 437.315 229.1 436.915 230.2L438.015 232.4C437.715 233.6 437.715 235 438.015 236.5L436.915 237.4C437.315 239 437.915 240.6 438.715 242.2L440.415 242.8C441.315 244.2 442.415 245.5 443.515 246.6L444.115 248.8C445.315 249.7 446.615 250.5 447.815 250.9L448.415 249.4C449.615 249.6 450.615 249.5 451.515 249.1L453.215 250.4C454.015 249.8 454.615 248.9 455.015 247.8L453.915 245.6C454.215 244.4 454.215 243 453.915 241.5L455.015 240.6C454.615 239 454.015 237.4 453.215 235.8L451.515 235.2C450.615 233.8 449.515 232.5 448.415 231.4L447.815 229.2ZM442.315 237C442.315 234.7 443.915 233.8 445.915 234.9C447.915 236 449.515 238.8 449.515 241.1C449.515 243.4 447.915 244.3 445.915 243.2C443.915 242 442.315 239.3 442.315 237Z" fill="#BFBFBF"/>
<path fill-rule="evenodd" clip-rule="evenodd" d="M358.515 100.8C355.015 98.3 351.515 96.3 348.115 94.8L346.415 101.4C343.115 100.3 339.915 99.8 337.015 99.9L331.615 92.4C328.715 92.9 326.015 93.9 323.715 95.5L326.515 104C324.415 105.8 322.715 108.2 321.515 111.1L314.915 107.9C313.915 111.1 313.315 114.7 313.115 118.6L319.115 125.3C319.215 129.3 319.715 133.4 320.815 137.7L316.115 140.4C317.415 144.9 319.215 149.4 321.315 153.8L327.715 155.5C330.015 159.6 332.515 163.6 335.415 167.3L334.815 174.6C337.815 178.2 341.115 181.5 344.515 184.3L348.315 180.2C351.615 182.7 355.015 184.7 358.315 186L362.115 194.5C365.415 195.6 368.715 196.1 371.815 196L371.215 188C374.115 187.6 376.715 186.6 378.915 185L385.315 190.7C387.415 188.7 389.215 186.2 390.515 183.3L385.815 175.2C386.815 172.1 387.415 168.6 387.515 164.8L393.515 165.1C393.315 161 392.715 156.7 391.715 152.3L385.115 147.8C383.915 143.5 382.215 139.1 380.115 134.9L382.915 129.6C380.615 125.3 377.915 121.1 375.015 117.3L369.615 118.6C366.615 115 363.515 111.9 360.215 109.2L358.515 100.8ZM338.415 135.3C338.415 125.8 345.115 122 353.315 126.7C361.515 131.4 368.115 143 368.215 152.5C368.215 162 361.515 165.8 353.315 161.1C345.115 156.4 338.415 144.8 338.415 135.3Z" fill="url(#paint2_linear_1_352)"/>
<path fill-rule="evenodd" clip-rule="evenodd" d="M351.415 107.9C347.915 105.4 344.415 103.4 341.015 101.9L339.315 108.5C336.015 107.4 332.815 106.9 329.915 107L324.515 99.5C321.615 100 318.915 101 316.615 102.6L319.415 111.1C317.315 112.9 315.615 115.3 314.415 118.2L307.815 115C306.815 118.2 306.215 121.8 306.015 125.7L312.015 132.4C312.115 136.4 312.615 140.5 313.715 144.8L309.015 147.5C310.315 152 312.115 156.5 314.215 160.9L320.615 162.6C322.915 166.7 325.415 170.7 328.315 174.4L327.715 181.7C330.715 185.3 334.015 188.6 337.415 191.4L341.215 187.3C344.515 189.8 347.915 191.8 351.215 193.1L355.015 201.6C358.315 202.7 361.615 203.2 364.715 203.1L364.115 195.1C367.015 194.7 369.615 193.7 371.815 192.1L378.215 197.8C380.315 195.8 382.115 193.3 383.415 190.4L378.715 182.3C379.715 179.2 380.315 175.7 380.415 171.9L386.415 172.2C386.215 168.1 385.615 163.8 384.615 159.4L378.015 154.9C376.815 150.6 375.115 146.2 373.015 142L375.815 136.7C373.515 132.4 370.815 128.2 367.915 124.4L362.515 125.7C359.515 122.1 356.415 119 353.115 116.3L351.415 107.9ZM331.315 142.4C331.315 132.9 338.015 129.1 346.215 133.8C354.415 138.5 361.115 150.1 361.115 159.6C361.115 169.1 354.415 172.9 346.215 168.2C338.015 163.5 331.315 151.9 331.315 142.4Z" fill="url(#paint3_linear_1_352)"/>
<path d="M258.815 298.7L51.5154 366.5L50.6154 419.1L206.215 510.3L412.715 390.4V336.7L258.815 298.7Z" fill="url(#paint4_linear_1_352)"/>
<path d="M258.815 245.6L50.5154 366L206.115 457.2L412.615 337.3L258.815 245.6Z" fill="url(#paint5_linear_1_352)"/>
<path d="M122.715 165.4V165.4C122.915 165.9 123.215 166.4 123.415 166.9L132.715 162.4L120.415 154.6L116.315 156.6L116.215 156.9C118.915 159.1 121.115 162 122.715 165.4" fill="#757474"/>
<path d="M66.1154 230.1C63.4154 231.7 60.7154 232.6 58.4154 232.9C61.2154 240.9 69.1154 243.3 78.4154 237.9C90.1154 231.2 99.5154 214.8 99.5154 201.3C99.5154 191 94.0154 185.4 86.1154 186.3C86.8154 188.3 87.2154 190.7 87.2154 193.4C87.2154 207 77.7154 223.4 66.1154 230.1" fill="#757474"/>
<path d="M33.3154 219C35.0154 212.9 37.4154 206.7 40.4154 200.7L36.4154 193.2L24.1154 185.4L28.1154 192.9C25.1154 198.9 22.8154 205 21.0154 211.1L11.6154 217.4L23.9154 225.2L33.3154 219Z" fill="#757474"/>
<path d="M55.3154 177.6C59.5154 172.6 64.0154 168.1 68.6154 164.3L71.0154 152.4L58.7154 144.6L56.3154 156.5C51.7154 160.3 47.2154 164.8 43.0154 169.8L35.3154 168L47.6154 175.8L55.3154 177.6Z" fill="#757474"/>
<path d="M88.1154 153.1C92.8154 151.5 97.2154 150.8 101.415 151L105.115 145.8L109.015 140.3L105.415 138L96.7154 132.5L89.0154 143.2C87.5154 143.1 86.0154 143.2 84.5154 143.3L85.6154 144L88.1154 153.1Z" fill="#757474"/>
<path d="M25.7154 269.3L27.8154 265.7L32.4154 257.8C30.9154 253.5 30.1154 248.5 29.9154 243.1L21.4154 243.5L18.1154 241.4C18.5154 244.5 19.2154 247.3 20.1154 250L13.5154 261.5L24.6154 268.6L25.7154 269.3Z" fill="#757474"/>
<path d="M109.115 140.3C112.715 140.9 116.115 142.1 119.115 143.9L108.115 136.9C104.815 134.6 101.015 133.2 96.8154 132.5L105.515 138L109.115 140.3Z" fill="#9E9E9E"/>
<path d="M85.7154 144L84.6154 143.3L73.4154 136.2C68.5154 138.3 63.6154 141.1 58.7154 144.7L71.0154 152.5C75.9154 148.9 80.8154 146.1 85.7154 144" fill="#9E9E9E"/>
<path d="M47.6154 175.8L35.3154 168C31.2154 173.5 27.4154 179.3 24.0154 185.4L36.3154 193.2C39.7154 187.1 43.5154 181.3 47.6154 175.8" fill="#9E9E9E"/>
<path d="M23.9154 225.3L11.6154 217.5C10.1154 223.8 9.31542 229.9 9.11542 235.7L18.1154 241.4V241.4L21.4154 243.5C21.6154 237.7 22.5154 231.6 23.9154 225.3" fill="#9E9E9E"/>
<path d="M25.7154 269.3L24.6154 268.6L13.5154 261.5C15.4154 265.6 17.9154 269.2 20.8154 271.9L33.1154 279.7C30.0154 276.9 27.6154 273.4 25.7154 269.3" fill="#9E9E9E"/>
<path d="M52.9154 275.9C48.9154 275.4 45.2154 273.9 42.1154 271.6L40.3154 273.2L39.8154 279.3L52.1154 287.1L52.8154 277.4L52.9154 275.9Z" fill="#9E9E9E"/>
<path fill-rule="evenodd" clip-rule="evenodd" d="M135.315 177.6L126.815 187.1C126.715 192.7 125.815 198.6 124.215 204.8L130.915 208.6C129.115 214.9 126.615 221.3 123.615 227.5L114.515 229.9C111.415 235.8 107.715 241.5 103.715 246.7L104.515 257C100.115 262.2 95.5154 266.8 90.7154 270.8L85.3154 265C80.6154 268.5 75.8154 271.3 71.1154 273.2L65.7154 285.2C60.9154 286.8 56.3154 287.5 51.9154 287.4L52.6154 277.7L52.7154 276.1C48.7154 275.5 45.0154 274.1 41.9154 271.8L40.1154 273.4L32.8154 279.9C29.9154 277.1 27.4154 273.6 25.5154 269.4L27.6154 265.8L32.2154 257.9C30.7154 253.6 29.8154 248.6 29.7154 243.2L21.2154 243.6C21.5154 237.8 22.3154 231.7 23.8154 225.4L33.2154 219.1C35.0154 213 37.4154 206.8 40.3154 200.8L36.3154 193.3C39.7154 187.2 43.5154 181.3 47.6154 175.9L55.3154 177.7C59.5154 172.7 64.0154 168.2 68.6154 164.4L71.0154 152.5C75.9154 148.9 80.8154 146.1 85.7154 144L88.1154 153.1C92.7154 151.5 97.2154 150.8 101.415 151L105.115 145.8L109.015 140.3C112.615 140.9 116.015 142.1 119.015 143.9L120.315 144.7L116.415 156.5L116.315 156.8C118.915 159.1 121.015 162 122.715 165.4C123.015 165.9 123.215 166.4 123.415 166.9L132.715 162.4C134.215 166.9 135.115 172.1 135.315 177.6ZM78.4154 238C90.0154 231.2 99.5154 214.9 99.5154 201.4C99.5154 191.1 93.9154 185.5 86.1154 186.4C83.8154 186.7 81.1154 187.6 78.4154 189.2C66.8154 196 57.3154 212.3 57.3154 225.8C57.3154 228.6 57.7154 231 58.4154 233C61.2154 241 69.1154 243.4 78.4154 238Z" fill="#EBEBEB"/>
<path d="M195.515 83.4V83.4C195.615 83.7 195.815 84 195.915 84.3L201.315 81.7L194.215 77.2L191.815 78.3L191.715 78.5C193.315 79.7 194.615 81.4 195.515 83.4" fill="#757474"/>
<path d="M162.715 120.9C161.115 121.8 159.615 122.3 158.215 122.5C159.815 127.1 164.415 128.5 169.815 125.4C176.615 121.5 182.015 112 182.015 104.2C182.015 98.2 178.815 95 174.215 95.5C174.615 96.7 174.815 98.1 174.815 99.6C174.915 107.5 169.415 117 162.715 120.9" fill="#757474"/>
<path d="M143.615 114.5C144.615 111 146.015 107.4 147.715 103.9L145.415 99.6L138.315 95.1L140.615 99.5C138.915 103 137.515 106.5 136.515 110.1L131.115 113.8L138.215 118.3L143.615 114.5Z" fill="#757474"/>
<path d="M156.415 90.5C158.815 87.6 161.415 85 164.115 82.8L165.515 75.9L158.415 71.4L157.015 78.3C154.315 80.5 151.715 83.1 149.315 86L144.915 84.9L152.015 89.4L156.415 90.5Z" fill="#757474"/>
<path d="M175.415 76.2C178.115 75.3 180.715 74.9 183.115 75L185.315 72L187.615 68.8L185.515 67.5L180.515 64.3L176.115 70.5C175.215 70.5 174.415 70.5 173.515 70.6L174.115 71L175.415 76.2Z" fill="#757474"/>
<path d="M139.215 143.6L140.415 141.5L143.115 136.9C142.215 134.4 141.715 131.5 141.715 128.4L136.815 128.6L134.915 127.4C135.115 129.2 135.515 130.8 136.115 132.4L132.215 139.1L138.715 143.2L139.215 143.6Z" fill="#757474"/>
<path d="M187.615 68.8C189.715 69.1 191.615 69.8 193.415 70.9L187.015 66.8C185.115 65.5 182.915 64.6 180.515 64.2L185.515 67.4L187.615 68.8Z" fill="#9E9E9E"/>
<path d="M174.015 71L173.415 70.6L166.915 66.5C164.115 67.7 161.215 69.4 158.415 71.4L165.515 75.9C168.315 73.8 171.215 72.2 174.015 71" fill="#9E9E9E"/>
<path d="M152.015 89.4L144.915 84.9C142.515 88.1 140.315 91.5 138.415 95L145.515 99.5C147.415 96 149.615 92.6 152.015 89.4" fill="#9E9E9E"/>
<path d="M138.215 118.1L131.115 113.6C130.215 117.2 129.715 120.8 129.615 124.1L134.815 127.4V127.4L136.715 128.6C136.915 125.3 137.415 121.7 138.215 118.1" fill="#9E9E9E"/>
<path d="M139.215 143.6L138.515 143.2L132.015 139.1C133.115 141.5 134.515 143.5 136.315 145.2L143.415 149.7C141.815 148.1 140.315 146 139.215 143.6" fill="#9E9E9E"/>
<path d="M155.015 147.5C152.715 147.2 150.515 146.4 148.715 145L147.715 145.9L147.415 149.4L154.515 153.9L154.915 148.3L155.015 147.5Z" fill="#9E9E9E"/>
<path fill-rule="evenodd" clip-rule="evenodd" d="M202.815 90.5L197.915 96C197.815 99.2 197.315 102.6 196.515 106L200.415 108.2C199.315 111.9 197.815 115.6 196.115 119.2L190.815 120.6C189.015 124 186.815 127.3 184.515 130.3L185.015 136.3C182.515 139.3 179.815 142 177.015 144.3L173.915 140.9C171.215 142.9 168.415 144.5 165.715 145.6L162.615 152.6C159.815 153.5 157.115 154 154.615 153.9L155.015 148.3L155.115 147.4C152.715 147.1 150.615 146.2 148.815 144.9L147.815 145.8L143.615 149.5C141.815 147.8 140.415 145.8 139.315 143.4L140.515 141.3L143.215 136.7C142.415 134.2 141.915 131.3 141.815 128.2L136.915 128.4C137.115 125.1 137.615 121.5 138.415 117.9L143.815 114.2C144.815 110.6 146.215 107.1 147.915 103.6L145.615 99.3C147.515 95.8 149.715 92.4 152.115 89.2L156.515 90.3C158.915 87.4 161.515 84.8 164.215 82.6L165.615 75.7C168.415 73.7 171.315 72 174.115 70.8L175.515 76.1C178.215 75.2 180.815 74.8 183.215 74.9L185.415 71.9L187.715 68.7C189.815 69.1 191.815 69.8 193.515 70.8L194.215 71.3L191.915 78.2L191.815 78.4C193.315 79.7 194.515 81.4 195.515 83.4C195.565 83.55 195.64 83.7 195.715 83.85C195.79 84 195.865 84.15 195.915 84.3L201.315 81.7C202.215 84.3 202.715 87.3 202.815 90.5ZM169.815 125.4C176.515 121.5 182.015 112 182.015 104.2C182.015 98.3 178.815 95 174.315 95.5C172.915 95.7 171.415 96.2 169.815 97.1C163.115 101 157.615 110.5 157.615 118.3C157.615 119.9 157.815 121.3 158.215 122.5C159.815 127.1 164.415 128.5 169.815 125.4Z" fill="#EBEBEB"/>
<path d="M463.215 545.7C463.215 545.7 484.815 563.7 505.915 553.6C545.415 534.6 556.215 549.6 571.915 538.4C589.115 526.2 606.915 536.5 614.915 526.4C622.915 516.2 603.315 497.8 577.515 498.4C551.715 498.9 526.215 520 516.615 521.3C507.015 522.6 486.715 542 479.415 540.7C472.115 539.4 463.215 545.7 463.215 545.7Z" fill="url(#paint6_linear_1_352)"/>
<path d="M548.615 366C548.615 366 549.415 378.9 538.115 379.9C526.715 380.9 541.615 364.9 548.615 366Z" fill="#FFCCB2"/>
<path d="M479.515 528.4C479.515 528.4 478.515 534.7 478.315 536.1C478.115 537.5 466.415 533.8 459.915 537.9C454.415 541.3 453.815 547.1 469.815 551.9C487.215 557.1 498.015 557.8 500.715 551.9C503.415 546 501.415 529 501.915 528.7C502.315 528.6 479.515 528.4 479.515 528.4Z" fill="#4C55D9"/>
<path d="M549.415 514.4L551.515 517.7C551.515 517.7 552.615 524.3 553.315 526C554.015 527.8 555.115 532.7 549.315 536.4C543.515 540.1 526.915 546.8 517.915 545.2C517.915 545.2 515.415 538.1 518.715 534.5C522.015 530.8 530.315 527.6 529.115 522.7C527.915 517.8 546.915 514.6 549.415 514.4Z" fill="#4C55D9"/>
<path d="M517.815 545.2C518.115 545.1 523.515 543.7 530.515 537C537.715 530.1 544.315 525.9 549.515 527.5C552.215 528.4 553.515 529.7 553.315 531.6C552.715 533.2 551.515 534.9 549.215 536.4C543.415 540.1 526.815 546.8 517.815 545.2V545.2Z" fill="#12154A"/>
<path d="M504.615 470.4C504.615 470.4 513.315 495.7 518.315 507.8C523.315 519.9 525.315 521.8 525.315 521.8C525.315 521.8 540.315 527.5 551.415 517.6C550.315 507.9 544.015 482.4 538.615 469.9C533.215 457.4 536.415 432.6 537.615 422.4C538.815 412.2 537.115 399.5 537.115 399.5L518.415 405.6L504.615 470.4Z" fill="url(#paint7_linear_1_352)"/>
<path d="M492.915 399.4L484.415 403.7C484.415 403.7 478.315 436.8 476.615 468C474.915 499.2 475.415 531.2 475.415 531.2C475.415 531.2 485.915 538 496.915 535.7C505.415 533.9 506.315 526.1 506.115 518.7C505.915 511.3 506.015 485.2 510.215 461.9C514.415 438.6 523.115 413.8 523.615 410.1C524.115 406.3 492.915 399.4 492.915 399.4Z" fill="#2E2E2E"/>
<path d="M517.315 312.6L519.715 315.9C519.715 315.9 521.815 321 523.115 323.2C524.515 325.4 501.115 330.8 501.115 330.8C501.115 330.8 499.815 324.3 499.615 321.9C499.615 321.9 489.415 323.7 488.215 316.4C487.015 309 489.615 299.6 491.715 295.9C494.015 292.3 515.315 307.7 517.315 312.6Z" fill="#FFCCB2"/>
<path d="M474.115 353.1C474.115 353.1 470.915 339.2 468.315 331.3C465.715 323.4 466.415 312.2 466.015 308.2C465.415 302.2 464.215 298.8 461.915 296.8C459.615 294.8 458.215 296.5 458.215 296.5C458.215 296.5 459.115 305.4 459.115 307.5C459.115 309.6 454.415 307.4 451.715 312.1C448.715 317.4 454.315 318.7 453.115 323C451.915 327.3 449.415 336.2 451.515 349C453.615 361.8 461.515 382 474.215 376.2C486.015 370.9 474.115 353.1 474.115 353.1Z" fill="#FFCCB2"/>
<path d="M469.515 335.1C471.815 343 474.215 353.2 474.215 353.2C474.215 353.2 479.315 360.9 479.415 367.6C478.815 370.7 477.815 373.3 476.315 375C475.715 375.5 475.015 375.9 474.115 376.3C473.115 376.7 472.215 377 471.315 377.2C471.315 377.2 464.415 368.5 464.815 362.3C465.215 356.1 462.915 352 463.215 344.8C463.415 340.9 466.215 336.4 469.515 335.1Z" fill="#F8AB8C"/>
<path d="M490.115 366.8C490.115 366.8 478.215 374.1 474.215 376.3C463.815 369.1 463.015 356 474.115 346.9C485.315 337.8 498.515 325.2 513.215 322.1C527.915 318.9 540.615 325.8 546.515 345.4C549.615 355.6 548.515 366.1 548.515 366.1C548.515 366.1 546.815 370.4 540.515 371.1C540.515 371.1 541.015 379.4 541.315 388.4C541.615 397.5 540.515 405.9 525.915 411C509.315 416.9 489.415 413.6 484.315 403.7C484.415 403.6 487.915 373.1 490.115 366.8Z" fill="url(#paint8_linear_1_352)"/>
<path d="M490.115 366.8C490.115 366.8 499.515 359.2 503.815 356.1C508.115 353 511.015 363.6 498.115 431.8C487.215 489.1 485.015 520.7 486.415 535.4C480.115 534.1 475.515 531.1 475.515 531.1C475.515 531.1 474.915 499.1 476.715 467.9C478.415 436.7 484.515 403.6 484.515 403.6V403.3C484.915 399.9 488.015 373.1 490.115 367V366.8Z" fill="url(#paint9_linear_1_352)"/>
<path d="M519.715 315.9C519.715 315.9 518.215 312.8 520.815 309C523.515 305.2 525.115 297.1 520.715 291.4C516.315 285.7 512.415 285.9 512.415 285.9C512.415 285.9 508.515 276.6 498.615 278.4C488.715 280.2 489.315 287.6 490.315 290.7C491.315 293.8 493.115 296.3 493.315 298.9C493.415 301.4 494.315 302 496.515 300.1C498.715 298.1 502.415 302.6 499.615 306.2C496.815 309.7 502.515 314.2 504.615 317C506.715 319.9 508.215 317.5 511.515 316.4C514.915 315.3 519.715 315.9 519.715 315.9Z" fill="#000959"/>
<path d="M178.315 373.3C178.315 373.3 194.615 359 217.015 348.2C239.315 337.4 255.415 344.8 270.915 338.1C286.415 331.4 305.115 325.7 310.915 338.1C316.715 350.5 274.515 366.6 264.815 370.1C255.115 373.6 240.915 384 236.415 384.6C231.815 385.2 221.215 379.5 212.115 377.3C203.015 375.2 192.515 374.1 186.015 377.4C179.415 380.9 178.315 373.3 178.315 373.3Z" fill="url(#paint10_linear_1_352)"/>
<path fill-rule="evenodd" clip-rule="evenodd" d="M288.615 120.8C288.615 127.8 291.915 134 296.915 138L260.715 251.4C254.315 252.9 249.515 258.6 249.515 265.4C249.515 273.3 255.915 279.7 263.815 279.7C271.715 279.7 278.115 273.3 278.115 265.4C278.115 261.9 276.915 258.7 274.815 256.2L311.115 142.9C323.015 142.7 332.715 132.9 332.715 120.9C332.715 115.4 330.815 110.4 327.515 106.6L321.915 124.1L308.015 127.3L298.915 116.7L304.315 99.7C295.215 102.4 288.615 110.8 288.615 120.8ZM271.015 265.3C271.015 261.3 267.815 258.1 263.815 258.1C259.815 258.1 256.615 261.3 256.615 265.3C256.615 269.3 259.815 272.5 263.815 272.5C267.815 272.5 271.015 269.3 271.015 265.3Z" fill="url(#paint11_linear_1_352)"/>
<path d="M263.015 212.1C263.015 212.1 279.115 197.9 282.615 191.2C284.715 187.2 281.115 183.2 284.415 182.6C287.715 182 289.915 184.8 289.915 184.8C289.915 184.8 292.515 183.4 295.715 180.1C299.015 176.9 304.715 183.1 301.315 192.6C297.915 202.1 281.215 228 267.615 231.3C254.115 234.7 263.015 212.1 263.015 212.1Z" fill="#FFAC90"/>
<path d="M172.115 335.3C178.215 326.4 187.315 316.7 191.415 312.9C197.415 307.3 195.315 299.2 192.915 279.9C190.515 260.5 191.415 248.6 191.415 248.6L215.115 256.9C215.115 256.9 222.115 316.5 218.015 325.6C213.915 334.7 207.015 339.6 201.215 343.9C197.915 346.4 194.815 348.7 192.615 350.8C191.915 348 190.415 344 187.015 339.6C180.815 331.7 173.015 334.9 172.115 335.3Z" fill="url(#paint12_linear_1_352)"/>
<path d="M172.115 335.3C173.015 334.9 180.815 331.7 187.115 339.7C190.515 344.1 192.115 348.1 192.715 350.9C191.115 352.4 190.015 353.9 189.715 355.4C188.915 358.8 193.615 370.1 192.115 375.2C190.615 380.3 181.415 382 176.315 379.4C171.215 376.8 167.215 358.8 166.315 347C166.915 343.6 169.115 339.5 172.115 335.3Z" fill="#4F5482"/>
<path d="M166.215 346.8C166.415 346.5 170.515 342.5 175.715 344.8C181.115 347.2 184.915 354.7 187.215 363.2C189.315 370.7 190.515 375.3 189.515 378.3C186.015 380.7 180.015 381.2 176.215 379.3C171.115 376.7 167.115 358.6 166.215 346.8V346.8Z" fill="#282C51"/>
<path d="M218.715 370.3C218.715 370.3 217.915 376.4 217.815 379.8C217.715 383.2 221.915 389 233.615 385.1C245.315 381.1 259.815 373.8 259.915 367.1C259.915 360.4 251.815 358.8 241.715 361.6C231.515 364.4 218.715 370.3 218.715 370.3Z" fill="#282C51"/>
<path d="M201.215 257.6C201.915 256.7 207.515 283.9 210.215 292C212.915 300.1 214.315 304.3 213.215 314.1C212.115 323.9 213.415 341.3 215.715 351.4C218.015 361.5 218.615 370.3 218.615 370.3C218.615 370.3 223.115 374.9 230.815 373.4C238.515 371.9 242.615 366.7 242.615 366.7C242.615 366.7 247.715 291.7 243.315 253C238.815 214.1 200.515 258.5 201.215 257.6Z" fill="#FFAC90"/>
<path d="M244.415 267.5C246.515 307.9 242.615 366.6 242.615 366.6C242.615 366.6 240.815 368.9 237.315 370.9C238.215 364.1 238.715 350.3 234.815 327.5C228.615 293 235.115 276.7 244.415 267.5Z" fill="#FFD0C0"/>
<path d="M194.915 306.4C199.915 306.1 208.515 308.3 209.215 310C210.015 312 208.515 313.3 192.815 321.9C185.615 325.8 180.715 330.4 177.515 334.3C174.715 334.2 172.615 335.1 172.215 335.3C178.315 326.4 187.415 316.7 191.515 312.9C193.315 311.1 194.415 309 194.915 306.4Z" fill="#FFAC90"/>
<path d="M242.415 148.6C242.415 148.6 247.515 158.4 245.915 169.3C244.315 180.3 232.815 178.8 232.815 178.8L232.615 186.8L211.215 184.7C211.215 184.7 214.215 175.2 214.715 170.5C215.315 166.3 234.215 145 242.415 148.6Z" fill="#FFAC90"/>
<path d="M191.115 236.6C191.115 236.6 180.015 230.7 183.715 215.1C187.415 199.5 201.115 181.3 208.815 180.2C216.515 179.1 191.115 236.6 191.115 236.6Z" fill="#4964EA"/>
<path d="M188.715 251.4C188.715 251.4 189.315 218.1 196.915 198.5C204.515 178.9 211.115 173.2 227.615 180.7C244.115 188.2 248.015 201.8 254.715 205.9C261.415 210.1 269.115 212.1 269.115 212.1C269.115 212.1 276.815 223.8 267.515 231.6C259.415 233 244.115 226.1 244.115 226.1C244.115 226.1 246.015 244.7 248.815 254C238.915 267.9 191.415 266 188.715 251.4Z" fill="url(#paint13_linear_1_352)"/>
<path d="M241.315 190.6C247.315 196.9 250.415 203.3 254.715 206C258.115 208.1 261.815 209.7 264.615 210.7C268.715 207 279.815 196.6 282.715 191.2C284.815 187.2 281.215 183.2 284.515 182.6C287.815 182 290.015 184.8 290.015 184.8C290.015 184.8 292.615 183.4 295.815 180.1C299.115 176.9 304.815 183.1 301.415 192.6C300.515 195.2 298.615 198.9 296.015 203.2C290.015 210.3 275.015 219.2 261.315 214.8C246.115 209.9 241.315 190.7 241.315 190.6Z" fill="url(#paint14_linear_1_352)"/>
<path d="M245.015 234.6C239.615 232.5 229.415 227.2 224.215 207.9C229.915 216.5 243.115 225.6 243.915 226.2V226.2C244.015 226.2 244.315 229.8 245.015 234.6Z" fill="#4964EA"/>
<path d="M231.015 167.8C231.015 167.8 231.415 175.7 221.715 175.7C212.115 175.7 207.215 165.8 207.315 155.4C207.415 145 216.115 144.3 216.115 144.3C216.115 144.3 215.415 135.3 224.015 133.6C232.515 131.8 234.915 137.9 234.915 137.9C234.915 137.9 242.915 134.4 245.615 142C248.215 149.6 236.915 154.6 236.915 154.6C236.915 154.6 237.915 160.2 235.615 160.2C233.315 160.2 228.715 156.3 226.615 161.1C224.615 166 231.015 167.8 231.015 167.8Z" fill="#0115C5"/>
<g opacity="0.3">
<path d="M579.908 41.2462V41.2462C580.031 41.5538 580.215 41.8615 580.338 42.1692L586.062 39.4L578.492 34.6L575.969 35.8308L575.908 36.0154C577.569 37.3692 578.923 39.1538 579.908 41.2462" fill="#757474"/>
<path d="M545.077 81.0615C543.415 82.0462 541.754 82.6 540.339 82.7846C542.062 87.7077 546.923 89.1846 552.646 85.8615C559.846 81.7385 565.631 71.6462 565.631 63.3385C565.631 57 562.246 53.5538 557.385 54.1077C557.815 55.3385 558.062 56.8154 558.062 58.4769C558.062 66.8462 552.215 76.9385 545.077 81.0615" fill="#757474"/>
<path d="M524.892 74.2308C525.938 70.4769 527.415 66.6615 529.262 62.9692L526.8 58.3538L519.231 53.5538L521.692 58.1692C519.846 61.8615 518.431 65.6154 517.323 69.3692L511.538 73.2462L519.108 78.0462L524.892 74.2308Z" fill="#757474"/>
<path d="M538.431 48.7538C541.015 45.6769 543.785 42.9077 546.615 40.5692L548.092 33.2462L540.523 28.4462L539.046 35.7692C536.215 38.1077 533.446 40.8769 530.862 43.9538L526.123 42.8462L533.692 47.6462L538.431 48.7538Z" fill="#757474"/>
<path d="M558.615 33.6769C561.508 32.6923 564.215 32.2615 566.8 32.3846L569.077 29.1846L571.477 25.8L569.262 24.3846L563.908 21L559.169 27.5846C558.246 27.5231 557.323 27.5846 556.4 27.6462L557.077 28.0769L558.615 33.6769Z" fill="#757474"/>
<path d="M520.215 105.185L521.508 102.969L524.338 98.1077C523.415 95.4615 522.923 92.3846 522.8 89.0615L517.569 89.3077L515.538 88.0154C515.785 89.9231 516.215 91.6462 516.769 93.3077L512.708 100.385L519.538 104.754L520.215 105.185Z" fill="#757474"/>
<path d="M571.538 25.8C573.754 26.1692 575.846 26.9077 577.692 28.0154L570.923 23.7077C568.892 22.2923 566.554 21.4308 563.969 21L569.323 24.3846L571.538 25.8Z" fill="#9E9E9E"/>
<path d="M557.138 28.0769L556.462 27.6462L549.569 23.2769C546.554 24.5692 543.538 26.2923 540.523 28.5077L548.092 33.3077C551.108 31.0923 554.123 29.3692 557.138 28.0769" fill="#9E9E9E"/>
<path d="M533.692 47.6462L526.123 42.8462C523.6 46.2308 521.261 49.8 519.169 53.5538L526.738 58.3538C528.831 54.6 531.169 51.0308 533.692 47.6462" fill="#9E9E9E"/>
<path d="M519.108 78.1077L511.538 73.3077C510.615 77.1846 510.123 80.9385 510 84.5077L515.538 88.0154V88.0154L517.569 89.3077C517.692 85.7385 518.246 81.9846 519.108 78.1077" fill="#9E9E9E"/>
<path d="M520.215 105.185L519.538 104.754L512.708 100.385C513.877 102.908 515.415 105.123 517.2 106.785L524.769 111.585C522.861 109.862 521.385 107.708 520.215 105.185" fill="#9E9E9E"/>
<path d="M536.954 109.246C534.492 108.938 532.215 108.015 530.308 106.6L529.2 107.585L528.892 111.338L536.462 116.138L536.892 110.169L536.954 109.246Z" fill="#9E9E9E"/>
<path fill-rule="evenodd" clip-rule="evenodd" d="M587.662 48.7538L582.431 54.6C582.369 58.0462 581.815 61.6769 580.831 65.4923L584.954 67.8308C583.846 71.7077 582.308 75.6462 580.462 79.4615L574.862 80.9385C572.954 84.5692 570.677 88.0769 568.215 91.2769L568.708 97.6154C566 100.815 563.169 103.646 560.215 106.108L556.892 102.538C554 104.692 551.046 106.415 548.154 107.585L544.831 114.969C541.877 115.954 539.046 116.385 536.338 116.323L536.769 110.354L536.831 109.369C534.369 109 532.092 108.138 530.185 106.723L529.077 107.708L524.585 111.708C522.8 109.985 521.262 107.831 520.092 105.246L521.385 103.031L524.215 98.1692C523.292 95.5231 522.738 92.4462 522.677 89.1231L517.446 89.3692C517.631 85.8 518.123 82.0462 519.046 78.1692L524.831 74.2923C525.938 70.5385 527.415 66.7231 529.2 63.0308L526.738 58.4154C528.831 54.6615 531.169 51.0308 533.692 47.7077L538.431 48.8154C541.015 45.7385 543.785 42.9692 546.615 40.6308L548.092 33.3077C551.108 31.0923 554.123 29.3692 557.138 28.0769L558.615 33.6769C561.446 32.6923 564.215 32.2615 566.8 32.3846L569.077 29.1846L571.477 25.8C573.692 26.1692 575.785 26.9077 577.631 28.0154L578.431 28.5077L576.031 35.7692L575.969 35.9538C577.569 37.3692 578.862 39.1538 579.908 41.2462C580.092 41.5538 580.215 41.8615 580.338 42.1692L580.338 42.1692L586.062 39.4C586.985 42.1692 587.538 45.3692 587.662 48.7538ZM552.646 85.9231C559.785 81.7385 565.631 71.7077 565.631 63.4C565.631 57.0615 562.185 53.6154 557.385 54.1692C555.969 54.3538 554.308 54.9077 552.646 55.8923C545.508 60.0769 539.662 70.1077 539.662 78.4154C539.662 80.1385 539.908 81.6154 540.338 82.8462C542.062 87.7692 546.923 89.2462 552.646 85.9231Z" fill="#EBEBEB"/>
</g>
<g opacity="0.3">
<path d="M105.9 19.2V19.2C106 19.5 106.2 19.8 106.3 20.1L111.7 17.5L104.6 13L102.2 14.1L102.1 14.3C103.7 15.5 105 17.2 105.9 19.2" fill="#757474"/>
<path d="M73.1 56.7C71.5 57.6 70 58.1 68.6 58.3C70.2 62.9 74.8 64.3 80.2 61.2C87 57.3 92.4 47.8 92.4 40C92.4 34 89.2 30.8 84.6 31.3C85 32.5 85.2 33.9 85.2 35.4C85.3 43.3 79.8 52.8 73.1 56.7" fill="#757474"/>
<path d="M54 50.3C55 46.8 56.4 43.2 58.1 39.7L55.8 35.4L48.7 30.9L51 35.3C49.3 38.8 47.9 42.3 46.9 45.9L41.5 49.6L48.6 54.1L54 50.3Z" fill="#757474"/>
<path d="M66.8 26.3C69.2 23.4 71.8 20.8 74.5 18.6L75.9 11.7L68.8 7.2L67.4 14.1C64.7 16.3 62.1 18.9 59.7 21.8L55.3 20.7L62.4 25.2L66.8 26.3Z" fill="#757474"/>
<path d="M85.8 12C88.5 11.1 91.1 10.7 93.5 10.8L95.7 7.8L98 4.6L95.9 3.3L90.9 0.0999985L86.5 6.3C85.6 6.3 84.8 6.3 83.9 6.4L84.5 6.8L85.8 12Z" fill="#757474"/>
<path d="M49.6 79.4L50.8 77.3L53.5 72.7C52.6 70.2 52.1 67.3 52.1 64.2L47.2 64.4L45.3 63.2C45.5 65 45.9 66.6 46.5 68.2L42.6 74.9L49.1 79L49.6 79.4Z" fill="#757474"/>
<path d="M98 4.6C100.1 4.9 102 5.6 103.8 6.7L97.4 2.6C95.5 1.3 93.3 0.4 90.9 0L95.9 3.2L98 4.6Z" fill="#9E9E9E"/>
<path d="M84.4 6.8L83.8 6.4L77.3 2.3C74.5 3.5 71.6 5.2 68.8 7.2L75.9 11.7C78.7 9.6 81.6 8 84.4 6.8" fill="#9E9E9E"/>
<path d="M62.4 25.2L55.3 20.7C52.9 23.9 50.7 27.3 48.8 30.8L55.9 35.3C57.8 31.8 60 28.4 62.4 25.2" fill="#9E9E9E"/>
<path d="M48.6 53.9L41.5 49.4C40.6 53 40.1 56.6 40 59.9L45.2 63.2V63.2L47.1 64.4C47.3 61.1 47.8 57.5 48.6 53.9" fill="#9E9E9E"/>
<path d="M49.6 79.4L48.9 79L42.4 74.9C43.5 77.3 44.9 79.3 46.7 81L53.8 85.5C52.2 83.9 50.7 81.8 49.6 79.4" fill="#9E9E9E"/>
<path d="M65.4 83.3C63.1 83 60.9 82.2 59.1 80.8L58.1 81.7L57.8 85.2L64.9 89.7L65.3 84.1L65.4 83.3Z" fill="#9E9E9E"/>
<path fill-rule="evenodd" clip-rule="evenodd" d="M113.2 26.3L108.3 31.8C108.2 35 107.7 38.4 106.9 41.8L110.8 44C109.7 47.7 108.2 51.4 106.5 55L101.2 56.4C99.4 59.8 97.2 63.1 94.9 66.1L95.4 72.1C92.9 75.1 90.2 77.8 87.4 80.1L84.3 76.7C81.6 78.7 78.8 80.3 76.1 81.4L73 88.4C70.2 89.3 67.5 89.8 65 89.7L65.4 84.1L65.5 83.2C63.1 82.9 61 82 59.2 80.7L58.2 81.6L54 85.3C52.2 83.6 50.8 81.6 49.7 79.2L50.9 77.1L53.6 72.5C52.8 70 52.3 67.1 52.2 64L47.3 64.2C47.5 60.9 48 57.3 48.8 53.7L54.2 50C55.2 46.4 56.6 42.9 58.3 39.4L56 35.1C57.9 31.6 60.1 28.2 62.5 25L66.9 26.1C69.3 23.2 71.9 20.6 74.6 18.4L76 11.5C78.8 9.5 81.7 7.8 84.5 6.6L85.9 11.9C88.6 11 91.2 10.6 93.6 10.7L95.8 7.7L98.1 4.5C100.2 4.9 102.2 5.6 103.9 6.6L104.6 7.1L102.3 14L102.2 14.2C103.7 15.5 104.9 17.2 105.9 19.2C105.95 19.35 106.025 19.5 106.1 19.65C106.175 19.8 106.25 19.95 106.3 20.1L111.7 17.5C112.6 20.1 113.1 23.1 113.2 26.3ZM80.2 61.2C86.9 57.3 92.4 47.8 92.4 40C92.4 34.1 89.2 30.8 84.7 31.3C83.3 31.5 81.8 32 80.2 32.9C73.5 36.8 68 46.3 68 54.1C68 55.7 68.2 57.1 68.6 58.3C70.2 62.9 74.8 64.3 80.2 61.2Z" fill="#EBEBEB"/>
</g>
<g opacity="0.5">
<path d="M46.8254 512.58V512.58C46.8954 512.79 47.0354 513 47.1054 513.21L50.8854 511.39L45.9154 508.24L44.2354 509.01L44.1654 509.15C45.2854 509.99 46.1954 511.18 46.8254 512.58" fill="#757474"/>
<path d="M23.8655 538.83C22.7455 539.46 21.6955 539.81 20.7155 539.95C21.8355 543.17 25.0555 544.15 28.8355 541.98C33.5955 539.25 37.3755 532.6 37.3755 527.14C37.3755 522.94 35.1355 520.7 31.9155 521.05C32.1955 521.89 32.3355 522.87 32.3355 523.92C32.4055 529.45 28.5555 536.1 23.8655 538.83" fill="#757474"/>
<path d="M10.4954 534.35C11.1954 531.9 12.1754 529.38 13.3654 526.93L11.7554 523.92L6.78542 520.77L8.39542 523.85C7.20542 526.3 6.22542 528.75 5.52542 531.27L1.74542 533.86L6.71542 537.01L10.4954 534.35Z" fill="#757474"/>
<path d="M19.4555 517.55C21.1355 515.52 22.9555 513.7 24.8455 512.16L25.8255 507.33L20.8555 504.18L19.8755 509.01C17.9855 510.55 16.1655 512.37 14.4855 514.4L11.4055 513.63L16.3755 516.78L19.4555 517.55Z" fill="#757474"/>
<path d="M32.7554 507.54C34.6454 506.91 36.4654 506.63 38.1454 506.7L39.6854 504.6L41.2954 502.36L39.8254 501.45L36.3254 499.21L33.2454 503.55C32.6154 503.55 32.0554 503.55 31.4254 503.62L31.8454 503.9L32.7554 507.54Z" fill="#757474"/>
<path d="M7.41544 554.72L8.25544 553.25L10.1454 550.03C9.51544 548.28 9.16544 546.25 9.16544 544.08L5.73544 544.22L4.40544 543.38C4.54544 544.64 4.82544 545.76 5.24544 546.88L2.51544 551.57L7.06544 554.44L7.41544 554.72Z" fill="#757474"/>
<path d="M41.2954 502.36C42.7654 502.57 44.0954 503.06 45.3554 503.83L40.8754 500.96C39.5454 500.05 38.0054 499.42 36.3254 499.14L39.8254 501.38L41.2954 502.36Z" fill="#9E9E9E"/>
<path d="M31.7754 503.9L31.3554 503.62L26.8054 500.75C24.8454 501.59 22.8154 502.78 20.8554 504.18L25.8254 507.33C27.7854 505.86 29.8154 504.74 31.7754 503.9" fill="#9E9E9E"/>
<path d="M16.3754 516.78L11.4054 513.63C9.72541 515.87 8.18541 518.25 6.85541 520.7L11.8254 523.85C13.1554 521.4 14.6954 519.02 16.3754 516.78" fill="#9E9E9E"/>
<path d="M6.71543 536.87L1.74543 533.72C1.11543 536.24 0.765435 538.76 0.695435 541.07L4.33543 543.38V543.38L5.66543 544.22C5.80543 541.91 6.15543 539.39 6.71543 536.87" fill="#9E9E9E"/>
<path d="M7.41543 554.72L6.92543 554.44L2.37543 551.57C3.14543 553.25 4.12543 554.65 5.38543 555.84L10.3554 558.99C9.23543 557.87 8.18543 556.4 7.41543 554.72" fill="#9E9E9E"/>
<path d="M18.4755 557.45C16.8655 557.24 15.3255 556.68 14.0655 555.7L13.3655 556.33L13.1555 558.78L18.1255 561.93L18.4055 558.01L18.4755 557.45Z" fill="#9E9E9E"/>
<path fill-rule="evenodd" clip-rule="evenodd" d="M51.9354 517.55L48.5054 521.4C48.4354 523.64 48.0854 526.02 47.5254 528.4L50.2554 529.94C49.4854 532.53 48.4354 535.12 47.2454 537.64L43.5354 538.62C42.2754 541 40.7354 543.31 39.1254 545.41L39.4754 549.61C37.7254 551.71 35.8354 553.6 33.8754 555.21L31.7054 552.83C29.8154 554.23 27.8554 555.35 25.9654 556.12L23.7954 561.02C21.8354 561.65 19.9454 562 18.1954 561.93L18.4754 558.01L18.5454 557.38C16.8654 557.17 15.3954 556.54 14.1354 555.63L13.4354 556.26L10.4954 558.85C9.23542 557.66 8.25542 556.26 7.48542 554.58L8.32542 553.11L10.2154 549.89C9.65542 548.14 9.30542 546.11 9.23542 543.94L5.80542 544.08C5.94542 541.77 6.29542 539.25 6.85542 536.73L10.6354 534.14C11.3354 531.62 12.3154 529.17 13.5054 526.72L11.8954 523.71C13.2254 521.26 14.7654 518.88 16.4454 516.64L19.5254 517.41C21.2054 515.38 23.0254 513.56 24.9154 512.02L25.8954 507.19C27.8554 505.79 29.8854 504.6 31.8454 503.76L32.8254 507.47C34.7154 506.84 36.5354 506.56 38.2154 506.63L39.7554 504.53L41.3654 502.29C42.8354 502.57 44.2354 503.06 45.4254 503.76L45.9154 504.11L44.3054 508.94L44.2354 509.08C45.2854 509.99 46.1254 511.18 46.8254 512.58C46.8604 512.685 46.9129 512.79 46.9654 512.895C47.0179 513 47.0704 513.105 47.1054 513.21L50.8854 511.39C51.5154 513.21 51.8654 515.31 51.9354 517.55ZM28.8354 541.98C33.5254 539.25 37.3754 532.6 37.3754 527.14C37.3754 523.01 35.1354 520.7 31.9854 521.05C31.0054 521.19 29.9554 521.54 28.8354 522.17C24.1454 524.9 20.2954 531.55 20.2954 537.01C20.2954 538.13 20.4354 539.11 20.7154 539.95C21.8354 543.17 25.0554 544.15 28.8354 541.98Z" fill="#EBEBEB"/>
</g>
<g opacity="0.3">
<path d="M340.554 555.815V555.815C340.615 556 340.738 556.185 340.8 556.369L344.123 554.769L339.754 552L338.277 552.677L338.215 552.8C339.2 553.538 340 554.585 340.554 555.815" fill="#757474"/>
<path d="M320.369 578.892C319.385 579.446 318.462 579.754 317.6 579.877C318.585 582.708 321.415 583.569 324.738 581.662C328.923 579.262 332.246 573.415 332.246 568.615C332.246 564.923 330.277 562.954 327.446 563.262C327.692 564 327.815 564.862 327.815 565.785C327.877 570.646 324.492 576.492 320.369 578.892" fill="#757474"/>
<path d="M308.615 574.954C309.231 572.8 310.092 570.585 311.138 568.431L309.723 565.785L305.354 563.015L306.769 565.723C305.723 567.877 304.862 570.031 304.246 572.246L300.923 574.523L305.292 577.292L308.615 574.954Z" fill="#757474"/>
<path d="M316.492 560.185C317.969 558.4 319.569 556.8 321.231 555.446L322.092 551.2L317.723 548.431L316.862 552.677C315.2 554.031 313.6 555.631 312.123 557.415L309.415 556.738L313.785 559.508L316.492 560.185Z" fill="#757474"/>
<path d="M328.185 551.385C329.846 550.831 331.446 550.585 332.923 550.646L334.277 548.8L335.692 546.831L334.4 546.031L331.323 544.062L328.615 547.877C328.062 547.877 327.569 547.877 327.015 547.938L327.385 548.185L328.185 551.385Z" fill="#757474"/>
<path d="M305.908 592.862L306.646 591.569L308.308 588.738C307.754 587.2 307.446 585.415 307.446 583.508L304.431 583.631L303.262 582.892C303.385 584 303.631 584.985 304 585.969L301.6 590.092L305.6 592.615L305.908 592.862Z" fill="#757474"/>
<path d="M335.692 546.831C336.985 547.015 338.154 547.446 339.262 548.123L335.323 545.6C334.154 544.8 332.8 544.246 331.323 544L334.4 545.969L335.692 546.831Z" fill="#9E9E9E"/>
<path d="M327.323 548.185L326.954 547.938L322.954 545.415C321.231 546.154 319.446 547.2 317.723 548.431L322.092 551.2C323.815 549.908 325.6 548.923 327.323 548.185" fill="#9E9E9E"/>
<path d="M313.785 559.508L309.415 556.738C307.938 558.708 306.585 560.8 305.415 562.954L309.785 565.723C310.954 563.569 312.308 561.477 313.785 559.508" fill="#9E9E9E"/>
<path d="M305.292 577.169L300.923 574.4C300.369 576.615 300.062 578.831 300 580.862L303.2 582.892V582.892L304.369 583.631C304.492 581.6 304.8 579.385 305.292 577.169" fill="#9E9E9E"/>
<path d="M305.908 592.862L305.477 592.615L301.477 590.092C302.154 591.569 303.015 592.8 304.123 593.846L308.492 596.615C307.508 595.631 306.585 594.338 305.908 592.862" fill="#9E9E9E"/>
<path d="M315.631 595.262C314.215 595.077 312.862 594.585 311.754 593.723L311.138 594.277L310.954 596.431L315.323 599.2L315.569 595.754L315.631 595.262Z" fill="#9E9E9E"/>
<path fill-rule="evenodd" clip-rule="evenodd" d="M345.046 560.185L342.031 563.569C341.969 565.538 341.662 567.631 341.169 569.723L343.569 571.077C342.892 573.354 341.969 575.631 340.923 577.846L337.662 578.708C336.554 580.8 335.2 582.831 333.785 584.677L334.092 588.369C332.554 590.215 330.892 591.877 329.169 593.292L327.262 591.2C325.6 592.431 323.877 593.415 322.215 594.092L320.308 598.4C318.585 598.954 316.923 599.262 315.385 599.2L315.631 595.754L315.692 595.2C314.215 595.015 312.923 594.462 311.815 593.662L311.2 594.215L308.615 596.492C307.508 595.446 306.646 594.215 305.969 592.738L306.708 591.446L308.369 588.615C307.877 587.077 307.569 585.292 307.508 583.385L304.492 583.508C304.615 581.477 304.923 579.262 305.415 577.046L308.738 574.769C309.354 572.554 310.215 570.4 311.262 568.246L309.846 565.6C311.015 563.446 312.369 561.354 313.846 559.385L316.554 560.062C318.031 558.277 319.631 556.677 321.292 555.323L322.154 551.077C323.877 549.846 325.662 548.8 327.385 548.062L328.246 551.323C329.908 550.769 331.508 550.523 332.985 550.585L334.338 548.738L335.754 546.769C337.046 547.015 338.277 547.446 339.323 548.062L339.754 548.369L338.338 552.615L338.277 552.738C339.2 553.538 339.938 554.585 340.554 555.815C340.585 555.908 340.631 556 340.677 556.092C340.723 556.185 340.769 556.277 340.8 556.369L344.123 554.769C344.677 556.369 344.985 558.215 345.046 560.185ZM324.738 581.662C328.862 579.262 332.246 573.415 332.246 568.615C332.246 564.985 330.277 562.954 327.508 563.262C326.646 563.385 325.723 563.692 324.738 564.246C320.615 566.646 317.231 572.492 317.231 577.292C317.231 578.277 317.354 579.138 317.6 579.877C318.585 582.708 321.415 583.569 324.738 581.662Z" fill="#EBEBEB"/>
</g>
<defs>
<linearGradient id="paint0_linear_1_352" x1="306.689" y1="544.512" x2="394.031" y2="368.918" gradientUnits="userSpaceOnUse">
<stop stop-color="#8588AA"/>
<stop offset="1" stop-color="#8588AA" stop-opacity="0.23"/>
</linearGradient>
<linearGradient id="paint1_linear_1_352" x1="468.355" y1="-9.29066" x2="233.603" y2="38.4862" gradientUnits="userSpaceOnUse">
<stop stop-color="#052542"/>
<stop offset="1" stop-color="#37B7F0"/>
</linearGradient>
<linearGradient id="paint2_linear_1_352" x1="378.274" y1="82.2699" x2="299.116" y2="98.9941" gradientUnits="userSpaceOnUse">
<stop stop-color="#052542"/>
<stop offset="1" stop-color="#37B7F0"/>
</linearGradient>
<linearGradient id="paint3_linear_1_352" x1="359.756" y1="198.36" x2="378.12" y2="143.717" gradientUnits="userSpaceOnUse">
<stop stop-color="#FFBD00"/>
<stop offset="1" stop-color="#FF7F21"/>
</linearGradient>
<linearGradient id="paint4_linear_1_352" x1="344.072" y1="278.012" x2="38.0798" y2="420.583" gradientUnits="userSpaceOnUse">
<stop stop-color="#052542"/>
<stop offset="1" stop-color="#37B7F0"/>
</linearGradient>
<linearGradient id="paint5_linear_1_352" x1="321.726" y1="247.788" x2="107.025" y2="376.65" gradientUnits="userSpaceOnUse">
<stop stop-color="#BABABA"/>
<stop offset="1" stop-color="#E6E6E6"/>
</linearGradient>
<linearGradient id="paint6_linear_1_352" x1="524.307" y1="560.291" x2="561.243" y2="494.981" gradientUnits="userSpaceOnUse">
<stop stop-color="#8588AA"/>
<stop offset="1" stop-color="#8588AA" stop-opacity="0.23"/>
</linearGradient>
<linearGradient id="paint7_linear_1_352" x1="510.959" y1="442.88" x2="527.536" y2="521.965" gradientUnits="userSpaceOnUse">
<stop stop-color="#2E2E2E"/>
<stop offset="1" stop-color="#717171"/>
</linearGradient>
<linearGradient id="paint8_linear_1_352" x1="496.097" y1="453.853" x2="580.637" y2="395.38" gradientUnits="userSpaceOnUse">
<stop stop-color="#4050E1"/>
<stop offset="1" stop-color="#0214B2"/>
</linearGradient>
<linearGradient id="paint9_linear_1_352" x1="485.459" y1="354.735" x2="442.598" y2="369.784" gradientUnits="userSpaceOnUse">
<stop stop-color="white" stop-opacity="0.25"/>
<stop offset="1" stop-color="white" stop-opacity="0.18"/>
</linearGradient>
<linearGradient id="paint10_linear_1_352" x1="240.349" y1="403.687" x2="277.692" y2="323.718" gradientUnits="userSpaceOnUse">
<stop stop-color="#232752" stop-opacity="0.3"/>
<stop offset="1" stop-color="#1F2343" stop-opacity="0.07"/>
</linearGradient>
<linearGradient id="paint11_linear_1_352" x1="295.171" y1="282.498" x2="364.015" y2="234.279" gradientUnits="userSpaceOnUse">
<stop stop-color="#F4F4F4"/>
<stop offset="0.5" stop-color="#B6B6B6"/>
<stop offset="1" stop-color="white"/>
</linearGradient>
<linearGradient id="paint12_linear_1_352" x1="193.838" y1="363.457" x2="229.063" y2="344.621" gradientUnits="userSpaceOnUse">
<stop stop-color="#FFAC90"/>
<stop offset="1" stop-color="#FF4A0D"/>
</linearGradient>
<linearGradient id="paint13_linear_1_352" x1="218.999" y1="300.511" x2="299.576" y2="239.896" gradientUnits="userSpaceOnUse">
<stop stop-color="#4050E1"/>
<stop offset="1" stop-color="#0214B2"/>
</linearGradient>
<linearGradient id="paint14_linear_1_352" x1="258.498" y1="219.86" x2="281.995" y2="192.394" gradientUnits="userSpaceOnUse">
<stop stop-color="white" stop-opacity="0.06"/>
<stop offset="1" stop-color="white" stop-opacity="0.3"/>
</linearGradient>
</defs>
</svg>
